<?xml version="1.0" standalone="no"?>
<!DOCTYPE svg PUBLIC "-//W3C//DTD SVG 20010904//EN"
 "http://www.w3.org/TR/2001/REC-SVG-20010904/DTD/svg10.dtd">
<svg version="1.0" xmlns="http://www.w3.org/2000/svg"
 width="155.000000pt" height="41.000000pt" viewBox="0 0 155.000000 41.000000"
 preserveAspectRatio="xMidYMid meet">

<g transform="translate(0.000000,41.000000) scale(0.100000,-0.100000)"
fill="#000000" stroke="none">
<path d="M0 205 l0 -205 775 0 775 0 0 205 0 205 -775 0 -775 0 0 -205z m170
76 c0 -33 -2 -35 -42 -45 -32 -7 -40 13 -8 21 13 3 20 14 20 29 0 15 6 24 15
24 10 0 15 -10 15 -29z m95 20 c-6 -5 -21 -11 -35 -14 -23 -4 -23 -4 5 -7 l30
-2 -30 -8 -30 -8 34 -1 c29 -1 32 -3 21 -17 -8 -9 -25 -14 -44 -12 -28 3 -31
7 -34 41 l-3 37 47 0 c29 0 44 -4 39 -9z m109 -24 c15 -19 26 -37 26 -40 0 -4
-18 -7 -40 -7 -42 0 -52 12 -23 29 10 5 14 13 10 17 -4 5 -19 -5 -32 -21 -31
-40 -43 -25 -15 19 27 45 42 45 74 3z m83 11 l23 -21 0 21 c0 12 5 22 10 22 6
0 10 -18 10 -41 0 -43 -5 -44 -47 -6 l-23 20 0 -27 c0 -16 -4 -25 -10 -21 -14
9 -13 75 2 75 6 0 22 -10 35 -22z m207 0 c15 -24 -9 -47 -57 -55 -35 -5 -37
-4 -37 21 0 14 5 26 10 26 6 0 10 -4 10 -10 0 -5 11 -10 25 -10 16 0 25 6 25
15 0 11 -11 15 -36 15 -22 0 -33 4 -29 11 10 16 77 6 89 -13z m121 -12 c0 -23
-6 -31 -26 -38 -38 -13 -79 6 -79 35 0 33 8 38 60 35 42 -3 45 -5 45 -32z m70
14 c3 -11 10 -20 15 -20 5 0 12 9 15 20 6 20 30 27 38 13 3 -5 8 -23 12 -40 8
-40 -11 -46 -21 -7 l-7 27 -14 -27 c-7 -14 -18 -26 -23 -26 -5 0 -16 12 -23
26 l-14 27 -7 -27 c-3 -14 -11 -26 -16 -26 -13 0 -13 10 1 49 12 35 35 41 44
11z m115 -20 c0 -22 -4 -40 -10 -40 -5 0 -10 18 -10 40 0 22 5 40 10 40 6 0
10 -18 10 -40z m67 18 l23 -21 0 21 c0 12 5 22 10 22 11 0 14 -63 3 -73 -4 -4
-19 5 -35 20 -27 26 -28 26 -28 5 0 -11 -4 -24 -10 -27 -6 -4 -10 10 -10 34 0
47 12 52 47 19z m81 -15 c-2 -21 -7 -38 -13 -38 -5 0 -11 17 -13 38 -3 29 0
37 13 37 13 0 16 -8 13 -37z m120 10 c2 -13 -1 -23 -7 -23 -6 0 -11 7 -11 16
0 11 -8 14 -32 12 -18 -2 -31 -7 -28 -13 3 -5 15 -9 26 -7 22 2 52 -23 41 -35
-4 -3 -26 -2 -49 3 -43 9 -56 27 -44 60 4 11 18 14 53 12 41 -3 48 -6 51 -25z
m44 0 c2 -20 9 -28 23 -28 14 0 21 8 23 28 4 33 32 37 32 5 0 -37 -16 -52 -55
-52 -39 0 -55 15 -55 52 0 32 28 28 32 -5z m163 18 c-6 -5 -19 -11 -30 -14
-15 -3 -12 -5 10 -7 l30 -2 -30 -8 -30 -8 28 -1 c42 -2 28 -25 -16 -29 l-37
-3 0 40 0 41 42 0 c25 0 38 -4 33 -9z m-892 -28 c-7 -2 -19 -2 -25 0 -7 3 -2
5 12 5 14 0 19 -2 13 -5z m-385 -85 c17 -17 15 -38 -3 -38 -8 0 -15 7 -15 15
0 10 -10 15 -30 15 -21 0 -30 -5 -30 -16 0 -11 6 -13 19 -9 20 6 61 -13 61
-27 0 -11 -44 -10 -75 2 -55 21 -38 70 24 70 20 0 42 -5 49 -12z m44 -15 c2
-20 9 -28 23 -28 14 0 21 8 23 28 5 38 32 36 32 -3 0 -23 -6 -33 -25 -42 -38
-17 -75 3 -75 42 0 38 18 40 22 3z m116 -10 c-2 -21 -7 -38 -13 -38 -5 0 -11
17 -13 38 -3 29 0 37 13 37 13 0 16 -8 13 -37z m59 15 l23 -21 0 21 c0 12 5
22 10 22 11 0 14 -63 3 -73 -4 -4 -19 5 -35 20 l-28 27 0 -27 c0 -15 -4 -27
-10 -27 -5 0 -10 18 -10 40 0 46 13 51 47 18z m148 12 c-3 -5 -13 -10 -21 -10
-8 0 -14 -10 -14 -24 0 -14 -4 -28 -10 -31 -6 -4 -10 7 -10 24 0 25 -4 31 -21
31 -11 0 -17 5 -14 10 3 6 26 10 51 10 28 0 43 -4 39 -10z m113 -25 c12 -19
22 -37 22 -40 0 -3 -18 -5 -40 -5 -42 0 -52 12 -23 29 10 5 14 13 10 17 -4 5
-19 -5 -32 -21 -32 -41 -44 -24 -14 20 30 44 48 44 77 0z m62 10 c0 -20 5 -25
26 -25 16 0 24 -5 22 -12 -3 -7 -20 -13 -39 -13 -32 0 -34 2 -37 38 -2 28 0
37 12 37 10 0 16 -9 16 -25z m205 15 c-3 -5 -13 -10 -21 -10 -8 0 -14 -10 -14
-24 0 -14 -4 -28 -10 -31 -6 -4 -10 7 -10 24 0 25 -4 31 -21 31 -11 0 -17 5
-14 10 3 6 26 10 51 10 28 0 43 -4 39 -10z m120 -24 c0 -23 -6 -31 -28 -39
-39 -13 -77 5 -77 36 0 33 8 38 60 35 42 -3 45 -5 45 -32z m122 18 c3 -8 1
-20 -5 -26 -6 -6 -8 -17 -5 -26 5 -12 1 -12 -25 4 -31 18 -32 18 -46 -1 -14
-19 -15 -19 -22 -2 -9 24 3 35 46 40 l35 4 -37 1 c-54 3 -47 22 7 22 32 0 47
-5 52 -16z m120 0 c3 -8 1 -20 -5 -26 -6 -6 -8 -17 -5 -24 7 -19 -11 -18 -27
1 -16 20 -36 19 -44 -2 -5 -12 -10 -13 -18 -5 -20 20 -1 42 39 44 l38 1 -37 4
c-53 6 -47 23 7 23 32 0 47 -5 52 -16z m88 7 c-6 -5 -19 -11 -30 -14 -15 -3
-12 -5 10 -7 l30 -2 -30 -8 -30 -8 28 -1 c42 -2 28 -25 -16 -29 l-37 -3 0 40
0 41 42 0 c25 0 38 -4 33 -9z m110 -1 c-3 -5 -21 -11 -38 -11 -30 -2 -30 -2 7
-8 22 -3 41 -12 44 -18 4 -15 -37 -33 -74 -33 -37 0 -24 24 17 31 l34 6 -37 2
c-31 1 -38 5 -38 21 0 17 7 20 46 20 27 0 43 -4 39 -10z m-672 -27 c-7 -2 -19
-2 -25 0 -7 3 -2 5 12 5 14 0 19 -2 13 -5z"/>
<path d="M700 276 c0 -18 30 -29 54 -20 26 10 13 29 -22 32 -23 2 -32 -1 -32
-12z"/>
<path d="M950 166 c0 -20 38 -30 55 -16 21 17 9 30 -26 30 -18 0 -29 -5 -29
-14z"/>
</g>
</svg>
