<svg xmlns="http://www.w3.org/2000/svg" xmlns:xlink="http://www.w3.org/1999/xlink" width="204" zoomAndPan="magnify" viewBox="0 0 153 153.000002" height="204" preserveAspectRatio="xMidYMid meet" version="1.0"><defs><g/><clipPath id="36c79882c4"><path d="M 0.496094 0 L 152.503906 0 L 152.503906 152.007812 L 0.496094 152.007812 Z M 0.496094 0 " clip-rule="nonzero"/></clipPath><clipPath id="33127d6ef8"><path d="M 76.5 0 C 118.476562 0 152.503906 34.027344 152.503906 76.003906 C 152.503906 117.980469 118.476562 152.007812 76.5 152.007812 C 34.523438 152.007812 0.496094 117.980469 0.496094 76.003906 C 0.496094 34.027344 34.523438 0 76.5 0 L 76.5 19.761719 C 45.4375 19.761719 20.257812 44.941406 20.257812 76.003906 C 20.257812 107.066406 45.4375 132.246094 76.5 132.246094 C 107.5625 132.246094 132.742188 107.066406 132.742188 76.003906 C 132.742188 44.941406 107.5625 19.761719 76.5 19.761719 L 76.5 0 " clip-rule="nonzero"/></clipPath><clipPath id="fd6aa44d74"><path d="M 0.496094 0 L 152.503906 0 L 152.503906 152.007812 L 0.496094 152.007812 Z M 0.496094 0 " clip-rule="nonzero"/></clipPath><clipPath id="ef5bf9780f"><path d="M 87.855469 0.851562 C 118.347656 5.460938 143.035156 28.039062 150.339844 58 C 157.644531 87.960938 146.121094 119.363281 121.171875 137.492188 C 96.226562 155.617188 62.796875 156.871094 36.558594 140.664062 C 10.320312 124.460938 -3.519531 94.003906 1.519531 63.582031 C 2.09375 60.097656 4.488281 57.1875 7.789062 55.949219 C 11.09375 54.707031 14.8125 55.320312 17.539062 57.5625 C 20.265625 59.804688 21.589844 63.328125 21.015625 66.8125 C 17.285156 89.324219 27.527344 111.859375 46.945312 123.851562 C 66.359375 135.847656 91.097656 134.917969 109.558594 121.503906 C 128.019531 108.089844 136.546875 84.851562 131.140625 62.679688 C 125.734375 40.507812 107.46875 23.800781 84.902344 20.390625 C 79.507812 19.578125 75.796875 14.542969 76.609375 9.144531 C 77.425781 3.75 82.460938 0.0390625 87.855469 0.851562 " clip-rule="nonzero"/></clipPath></defs><g clip-path="url(#36c79882c4)"><g clip-path="url(#33127d6ef8)"><path fill="#151515" d="M 0.496094 0 L 152.503906 0 L 152.503906 152.007812 L 0.496094 152.007812 Z M 0.496094 0 " fill-opacity="1" fill-rule="nonzero"/></g></g><g clip-path="url(#fd6aa44d74)"><g clip-path="url(#ef5bf9780f)"><path fill="#004aad" d="M 0.496094 0 L 152.503906 0 L 152.503906 152.007812 L 0.496094 152.007812 Z M 0.496094 0 " fill-opacity="1" fill-rule="nonzero"/></g></g><g fill="#ffffff" fill-opacity="1"><g transform="translate(43.660009, 83.557714)"><g><path d="M 14.503906 0 C 19.285156 0 20.644531 -1.902344 20.644531 -4.417969 C 20.644531 -6.234375 19.605469 -7.410156 18.265625 -7.796875 C 19.332031 -8.179688 20.351562 -9.179688 20.351562 -10.96875 C 20.351562 -13.757812 18.015625 -15.160156 14.390625 -15.160156 L 7.207031 -15.160156 C 3.582031 -15.160156 1.246094 -13.757812 1.246094 -10.96875 C 1.246094 -9.179688 2.265625 -8.179688 3.332031 -7.796875 C 1.996094 -7.410156 0.953125 -6.234375 0.953125 -4.417969 C 0.953125 -1.902344 2.3125 0 7.09375 0 Z M 14.527344 -5.984375 C 15.523438 -5.984375 15.976562 -5.621094 15.976562 -4.964844 C 15.976562 -4.261719 15.523438 -3.898438 14.527344 -3.898438 L 7.070312 -3.898438 C 6.074219 -3.898438 5.621094 -4.261719 5.621094 -4.964844 C 5.621094 -5.621094 6.074219 -5.984375 7.070312 -5.984375 Z M 14.59375 -11.21875 C 15.253906 -11.21875 15.886719 -10.992188 15.886719 -10.242188 C 15.886719 -9.472656 15.273438 -9.222656 14.59375 -9.222656 L 7.003906 -9.222656 C 6.324219 -9.222656 5.710938 -9.472656 5.710938 -10.242188 C 5.710938 -10.992188 6.347656 -11.21875 7.003906 -11.21875 Z M 14.59375 -11.21875 "/></g></g></g><g fill="#ffffff" fill-opacity="1"><g transform="translate(65.258242, 83.557714)"><g><path d="M 10.628906 -15.410156 C 4.191406 -15.410156 0.953125 -13.007812 0.953125 -7.59375 C 0.953125 -2.175781 4.191406 0.25 10.628906 0.25 C 17.066406 0.25 20.304688 -2.175781 20.304688 -7.59375 C 20.304688 -13.007812 17.066406 -15.410156 10.628906 -15.410156 Z M 10.628906 -3.695312 C 6.914062 -3.695312 5.574219 -4.328125 5.574219 -7.59375 C 5.574219 -10.855469 6.914062 -11.46875 10.628906 -11.46875 C 14.347656 -11.46875 15.683594 -10.855469 15.683594 -7.59375 C 15.683594 -4.328125 14.347656 -3.695312 10.628906 -3.695312 Z M 10.628906 -3.695312 "/></g></g></g><g fill="#ffffff" fill-opacity="1"><g transform="translate(86.516529, 83.557714)"><g><path d="M 5.800781 -15.683594 C 2.5625 -15.683594 0.953125 -14.480469 0.953125 -11.785156 C 0.953125 -9.066406 2.5625 -7.863281 5.800781 -7.863281 C 9.019531 -7.863281 10.628906 -9.066406 10.628906 -11.785156 C 10.628906 -14.480469 9.019531 -15.683594 5.800781 -15.683594 Z M 5.800781 -9.835938 C 3.945312 -9.835938 3.261719 -10.152344 3.261719 -11.785156 C 3.261719 -13.417969 3.945312 -13.710938 5.800781 -13.710938 C 7.636719 -13.710938 8.316406 -13.417969 8.316406 -11.785156 C 8.316406 -10.152344 7.636719 -9.835938 5.800781 -9.835938 Z M 16.476562 -16 L 4.238281 0.859375 L 6.300781 0.859375 L 18.378906 -16 Z M 17.042969 -7.480469 C 13.800781 -7.480469 12.191406 -6.277344 12.191406 -3.582031 C 12.191406 -0.859375 13.800781 0.339844 17.042969 0.339844 C 20.261719 0.339844 21.871094 -0.859375 21.871094 -3.582031 C 21.871094 -6.277344 20.261719 -7.480469 17.042969 -7.480469 Z M 17.042969 -1.632812 C 15.183594 -1.632812 14.503906 -1.949219 14.503906 -3.582031 C 14.503906 -5.210938 15.183594 -5.507812 17.042969 -5.507812 C 18.878906 -5.507812 19.558594 -5.210938 19.558594 -3.582031 C 19.558594 -1.949219 18.878906 -1.632812 17.042969 -1.632812 Z M 17.042969 -1.632812 "/></g></g></g></svg>