<svg xmlns="http://www.w3.org/2000/svg" xmlns:xlink="http://www.w3.org/1999/xlink" width="204" zoomAndPan="magnify" viewBox="0 0 153 153.000002" height="204" preserveAspectRatio="xMidYMid meet" version="1.0"><defs><g/><clipPath id="02e4a54c48"><path d="M 0.496094 0 L 152.503906 0 L 152.503906 152.007812 L 0.496094 152.007812 Z M 0.496094 0 " clip-rule="nonzero"/></clipPath><clipPath id="146de3f28b"><path d="M 76.5 0 C 118.476562 0 152.503906 34.027344 152.503906 76.003906 C 152.503906 117.980469 118.476562 152.007812 76.5 152.007812 C 34.523438 152.007812 0.496094 117.980469 0.496094 76.003906 C 0.496094 34.027344 34.523438 0 76.5 0 L 76.5 19.761719 C 45.4375 19.761719 20.257812 44.941406 20.257812 76.003906 C 20.257812 107.066406 45.4375 132.246094 76.5 132.246094 C 107.5625 132.246094 132.742188 107.066406 132.742188 76.003906 C 132.742188 44.941406 107.5625 19.761719 76.5 19.761719 L 76.5 0 " clip-rule="nonzero"/></clipPath><clipPath id="0554ff8778"><path d="M 36 0 L 152.503906 0 L 152.503906 152.007812 L 36 152.007812 Z M 36 0 " clip-rule="nonzero"/></clipPath><clipPath id="026f20f5b6"><path d="M 87.855469 0.851562 C 117.667969 5.359375 141.996094 27.054688 149.867188 56.160156 C 157.738281 85.261719 147.664062 116.265625 124.191406 135.183594 C 100.714844 154.097656 68.28125 157.351562 41.515625 143.476562 C 38.382812 141.851562 36.351562 138.679688 36.195312 135.152344 C 36.035156 131.625 37.765625 128.28125 40.742188 126.378906 C 43.714844 124.480469 47.476562 124.308594 50.613281 125.933594 C 70.417969 136.203125 94.421875 133.792969 111.792969 119.796875 C 129.160156 105.796875 136.617188 82.855469 130.792969 61.316406 C 124.964844 39.78125 106.964844 23.726562 84.902344 20.390625 C 79.507812 19.578125 75.796875 14.542969 76.609375 9.144531 C 77.425781 3.75 82.460938 0.0390625 87.855469 0.851562 " clip-rule="nonzero"/></clipPath></defs><g clip-path="url(#02e4a54c48)"><g clip-path="url(#146de3f28b)"><path fill="#151515" d="M 0.496094 0 L 152.503906 0 L 152.503906 152.007812 L 0.496094 152.007812 Z M 0.496094 0 " fill-opacity="1" fill-rule="nonzero"/></g></g><g clip-path="url(#0554ff8778)"><g clip-path="url(#026f20f5b6)"><path fill="#004aad" d="M 0.496094 0 L 152.503906 0 L 152.503906 152.007812 L 0.496094 152.007812 Z M 0.496094 0 " fill-opacity="1" fill-rule="nonzero"/></g></g><g fill="#ffffff" fill-opacity="1"><g transform="translate(43.45344, 83.557714)"><g><path d="M 9.859375 -11.21875 L 16.839844 -11.21875 L 19.851562 -15.160156 L 10.085938 -15.160156 C 4.828125 -15.160156 0.953125 -12.171875 0.953125 -7.726562 C 0.953125 -2.199219 4.601562 0.25 11.582031 0.25 C 16.5 0.25 21.054688 -0.746094 21.054688 -4.917969 C 21.054688 -7.660156 18.832031 -9.109375 15.386719 -9.109375 L 5.800781 -9.109375 C 6.503906 -10.402344 8 -11.21875 9.859375 -11.21875 Z M 15.027344 -6.097656 C 16.136719 -6.097656 16.636719 -5.777344 16.636719 -5.054688 C 16.636719 -4.191406 15.75 -3.695312 11.851562 -3.695312 C 8.316406 -3.695312 6.367188 -4.078125 5.800781 -6.097656 Z M 15.027344 -6.097656 "/></g></g></g><g fill="#ffffff" fill-opacity="1"><g transform="translate(65.45962, 83.557714)"><g><path d="M 10.628906 -15.410156 C 4.191406 -15.410156 0.953125 -13.007812 0.953125 -7.59375 C 0.953125 -2.175781 4.191406 0.25 10.628906 0.25 C 17.066406 0.25 20.304688 -2.175781 20.304688 -7.59375 C 20.304688 -13.007812 17.066406 -15.410156 10.628906 -15.410156 Z M 10.628906 -3.695312 C 6.914062 -3.695312 5.574219 -4.328125 5.574219 -7.59375 C 5.574219 -10.855469 6.914062 -11.46875 10.628906 -11.46875 C 14.347656 -11.46875 15.683594 -10.855469 15.683594 -7.59375 C 15.683594 -4.328125 14.347656 -3.695312 10.628906 -3.695312 Z M 10.628906 -3.695312 "/></g></g></g><g fill="#ffffff" fill-opacity="1"><g transform="translate(86.717908, 83.557714)"><g><path d="M 5.800781 -15.683594 C 2.5625 -15.683594 0.953125 -14.480469 0.953125 -11.785156 C 0.953125 -9.066406 2.5625 -7.863281 5.800781 -7.863281 C 9.019531 -7.863281 10.628906 -9.066406 10.628906 -11.785156 C 10.628906 -14.480469 9.019531 -15.683594 5.800781 -15.683594 Z M 5.800781 -9.835938 C 3.945312 -9.835938 3.261719 -10.152344 3.261719 -11.785156 C 3.261719 -13.417969 3.945312 -13.710938 5.800781 -13.710938 C 7.636719 -13.710938 8.316406 -13.417969 8.316406 -11.785156 C 8.316406 -10.152344 7.636719 -9.835938 5.800781 -9.835938 Z M 16.476562 -16 L 4.238281 0.859375 L 6.300781 0.859375 L 18.378906 -16 Z M 17.042969 -7.480469 C 13.800781 -7.480469 12.191406 -6.277344 12.191406 -3.582031 C 12.191406 -0.859375 13.800781 0.339844 17.042969 0.339844 C 20.261719 0.339844 21.871094 -0.859375 21.871094 -3.582031 C 21.871094 -6.277344 20.261719 -7.480469 17.042969 -7.480469 Z M 17.042969 -1.632812 C 15.183594 -1.632812 14.503906 -1.949219 14.503906 -3.582031 C 14.503906 -5.210938 15.183594 -5.507812 17.042969 -5.507812 C 18.878906 -5.507812 19.558594 -5.210938 19.558594 -3.582031 C 19.558594 -1.949219 18.878906 -1.632812 17.042969 -1.632812 Z M 17.042969 -1.632812 "/></g></g></g></svg>