<svg xmlns="http://www.w3.org/2000/svg" xmlns:xlink="http://www.w3.org/1999/xlink" width="310" zoomAndPan="magnify" viewBox="0 0 232.5 61.499998" height="82" preserveAspectRatio="xMidYMid meet" version="1.0"><defs><g/></defs><g fill="#ffffff" fill-opacity="1"><g transform="translate(13.285029, 33.86028)"><g><path d="M 2.570312 -3.027344 L 0.195312 0 L 4.59375 0 C 9.484375 0 11.949219 -1.777344 11.949219 -5.351562 L 11.949219 -11.773438 L 8.289062 -11.773438 L 8.289062 -5.351562 C 8.289062 -3.660156 7.375 -3.027344 4.59375 -3.027344 Z M 2.570312 -3.027344 "/></g></g></g><g fill="#ffffff" fill-opacity="1"><g transform="translate(25.956556, 33.86028)"><g><path d="M 4.769531 -3.027344 L 4.769531 -4.628906 L 12.003906 -4.628906 L 14.097656 -7.304688 L 4.769531 -7.304688 L 4.769531 -8.710938 L 12.390625 -8.710938 L 14.75 -11.773438 L 1.109375 -11.773438 L 1.109375 0 L 12.441406 0 L 14.785156 -3.027344 Z M 4.769531 -3.027344 "/></g></g></g><g fill="#ffffff" fill-opacity="1"><g transform="translate(40.669614, 33.86028)"><g><path d="M 19.78125 0 L 12.425781 -10.648438 C 11.914062 -11.386719 11.191406 -11.96875 10.101562 -11.96875 C 8.957031 -11.96875 8.238281 -11.332031 7.742188 -10.648438 L 0.195312 0 L 4.503906 0 L 10.03125 -7.8125 L 12.144531 -4.699219 C 12.53125 -4.136719 13.023438 -3.414062 13.339844 -2.992188 C 12.777344 -3.027344 11.949219 -3.027344 11.246094 -3.027344 L 8.289062 -3.027344 L 6.089844 0 Z M 19.78125 0 "/></g></g></g><g fill="#ffffff" fill-opacity="1"><g transform="translate(60.433697, 33.86028)"><g><path d="M 13.042969 0.195312 C 14.097656 0.195312 15.046875 -0.457031 15.046875 -2.023438 L 15.046875 -11.773438 L 11.722656 -11.773438 L 11.722656 -4.855469 L 4.503906 -11.332031 C 3.925781 -11.863281 3.484375 -11.96875 3.042969 -11.96875 C 2.007812 -11.96875 1.054688 -11.332031 1.054688 -9.765625 L 1.054688 0 L 4.363281 0 L 4.363281 -6.917969 L 11.582031 -0.441406 C 12.144531 0.0898438 12.582031 0.195312 13.042969 0.195312 Z M 13.042969 0.195312 "/></g></g></g><g fill="#ffffff" fill-opacity="1"><g transform="translate(76.308314, 33.86028)"><g><path d="M 2.042969 -7.09375 L 0.265625 -4.820312 L 6.140625 -4.820312 L 7.917969 -7.09375 Z M 2.042969 -7.09375 "/></g></g></g><g fill="#ffffff" fill-opacity="1"><g transform="translate(84.26322, 33.86028)"><g><path d="M 16.085938 -6 C 16.085938 -9.398438 13.113281 -11.773438 8.992188 -11.773438 L 3.433594 -11.773438 L 1.109375 -8.710938 L 8.992188 -8.710938 C 10.964844 -8.710938 12.476562 -7.496094 12.476562 -5.84375 C 12.476562 -4.152344 11.015625 -3.027344 8.992188 -3.027344 L 4.769531 -3.027344 L 4.769531 -7.339844 L 1.109375 -7.339844 L 1.109375 0 L 8.992188 0 C 13.078125 0 16.085938 -2.585938 16.085938 -6 Z M 16.085938 -6 "/></g></g></g><g fill="#ffffff" fill-opacity="1"><g transform="translate(100.877001, 33.86028)"><g><path d="M 9.34375 -11.96875 C 3.609375 -11.96875 0.738281 -10.101562 0.738281 -5.894531 C 0.738281 -1.691406 3.609375 0.195312 9.34375 0.195312 C 15.066406 0.195312 17.953125 -1.691406 17.953125 -5.894531 C 17.953125 -10.101562 15.066406 -11.96875 9.34375 -11.96875 Z M 9.34375 -2.867188 C 5.683594 -2.867188 4.363281 -3.363281 4.363281 -5.894531 C 4.363281 -8.429688 5.683594 -8.90625 9.34375 -8.90625 C 13.003906 -8.90625 14.324219 -8.429688 14.324219 -5.894531 C 14.324219 -3.363281 13.003906 -2.867188 9.34375 -2.867188 Z M 9.34375 -2.867188 "/></g></g></g><g fill="#ffffff" fill-opacity="1"><g transform="translate(119.356327, 33.86028)"><g><path d="M 7.355469 -10.71875 C 6.933594 -11.492188 6.300781 -11.96875 5.367188 -11.96875 C 4.453125 -11.96875 3.625 -11.441406 3.308594 -10.347656 L 0.265625 0 L 3.835938 0 L 4.945312 -4.101562 C 5.296875 -5.421875 5.5625 -6.40625 5.738281 -7.339844 C 6.105469 -6.546875 6.53125 -5.71875 7.390625 -4.101562 L 8.976562 -1.125 C 9.589844 0.0351562 10.191406 0.195312 11.070312 0.195312 C 11.949219 0.195312 12.546875 0.0351562 13.164062 -1.125 L 14.75 -4.082031 C 15.558594 -5.613281 15.996094 -6.511719 16.386719 -7.339844 C 16.578125 -6.386719 16.824219 -5.4375 17.195312 -4.101562 L 18.304688 0 L 21.929688 0 L 18.953125 -10.347656 C 18.636719 -11.441406 17.828125 -11.96875 16.914062 -11.96875 C 15.960938 -11.96875 15.328125 -11.476562 14.90625 -10.71875 L 13.023438 -7.375 C 11.984375 -5.5625 11.527344 -4.699219 11.140625 -3.871094 C 10.734375 -4.699219 10.277344 -5.578125 9.238281 -7.390625 Z M 7.355469 -10.71875 "/></g></g></g><g fill="#ffffff" fill-opacity="1"><g transform="translate(141.302726, 33.86028)"><g><path d="M 4.804688 -11.773438 L 1.160156 -11.773438 L 1.160156 0 L 4.804688 0 Z M 4.804688 -11.773438 "/></g></g></g><g fill="#ffffff" fill-opacity="1"><g transform="translate(147.057712, 33.86028)"><g><path d="M 13.042969 0.195312 C 14.097656 0.195312 15.046875 -0.457031 15.046875 -2.023438 L 15.046875 -11.773438 L 11.722656 -11.773438 L 11.722656 -4.855469 L 4.503906 -11.332031 C 3.925781 -11.863281 3.484375 -11.96875 3.042969 -11.96875 C 2.007812 -11.96875 1.054688 -11.332031 1.054688 -9.765625 L 1.054688 0 L 4.363281 0 L 4.363281 -6.917969 L 11.582031 -0.441406 C 12.144531 0.0898438 12.582031 0.195312 13.042969 0.195312 Z M 13.042969 0.195312 "/></g></g></g><g fill="#ffffff" fill-opacity="1"><g transform="translate(162.932334, 33.86028)"><g><path d="M 4.804688 -11.773438 L 1.160156 -11.773438 L 1.160156 0 L 4.804688 0 Z M 4.804688 -11.773438 "/></g></g></g><g fill="#ffffff" fill-opacity="1"><g transform="translate(168.68732, 33.86028)"><g><path d="M 12.019531 -5.050781 L 7.269531 -5.050781 L 8.765625 -3.890625 C 9.167969 -3.574219 9.679688 -3.203125 10.03125 -2.972656 C 9.609375 -3.007812 9.082031 -3.027344 8.605469 -3.027344 L 7.847656 -3.027344 C 5.683594 -3.027344 4.363281 -3.714844 4.363281 -5.894531 C 4.363281 -8.429688 5.683594 -8.90625 9.34375 -8.90625 C 13.003906 -8.90625 14.324219 -8.429688 14.324219 -5.894531 C 14.324219 -5.015625 14.097656 -4.347656 13.535156 -3.925781 L 17.441406 -3.925781 C 17.773438 -4.46875 17.953125 -5.15625 17.953125 -5.894531 C 17.953125 -10.101562 15.066406 -11.96875 9.34375 -11.96875 C 3.609375 -11.96875 0.738281 -10.101562 0.738281 -5.894531 C 0.738281 -2.023438 3.855469 0 7.847656 0 L 18.164062 0 Z M 12.019531 -5.050781 "/></g></g></g><g fill="#ffffff" fill-opacity="1"><g transform="translate(187.166652, 33.86028)"><g><path d="M 16.402344 -11.773438 L 12.742188 -11.773438 L 12.742188 -5.140625 C 12.742188 -3.484375 11.863281 -2.832031 9.0625 -2.832031 C 5.316406 -2.832031 4.574219 -3.398438 4.574219 -5.140625 L 4.574219 -11.773438 L 0.949219 -11.773438 L 0.949219 -5.140625 C 0.949219 -1.582031 3.398438 0.195312 9.0625 0.195312 C 13.957031 0.195312 16.402344 -1.582031 16.402344 -5.140625 Z M 16.402344 -11.773438 "/></g></g></g><g fill="#ffffff" fill-opacity="1"><g transform="translate(204.308405, 33.86028)"><g><path d="M 4.769531 -3.027344 L 4.769531 -4.628906 L 12.003906 -4.628906 L 14.097656 -7.304688 L 4.769531 -7.304688 L 4.769531 -8.710938 L 12.390625 -8.710938 L 14.75 -11.773438 L 1.109375 -11.773438 L 1.109375 0 L 12.441406 0 L 14.785156 -3.027344 Z M 4.769531 -3.027344 "/></g></g></g><g fill="#ffffff" fill-opacity="1"><g transform="translate(8.495656, 49.992905)"><g><path d="M 12.019531 -5.050781 L 7.269531 -5.050781 L 8.765625 -3.890625 C 9.167969 -3.574219 9.679688 -3.203125 10.03125 -2.972656 C 9.609375 -3.007812 9.082031 -3.027344 8.605469 -3.027344 L 7.847656 -3.027344 C 5.683594 -3.027344 4.363281 -3.714844 4.363281 -5.894531 C 4.363281 -8.429688 5.683594 -8.90625 9.34375 -8.90625 C 13.003906 -8.90625 14.324219 -8.429688 14.324219 -5.894531 C 14.324219 -5.015625 14.097656 -4.347656 13.535156 -3.925781 L 17.441406 -3.925781 C 17.773438 -4.46875 17.953125 -5.15625 17.953125 -5.894531 C 17.953125 -10.101562 15.066406 -11.96875 9.34375 -11.96875 C 3.609375 -11.96875 0.738281 -10.101562 0.738281 -5.894531 C 0.738281 -2.023438 3.855469 0 7.847656 0 L 18.164062 0 Z M 12.019531 -5.050781 "/></g></g></g><g fill="#ffffff" fill-opacity="1"><g transform="translate(26.974983, 49.992905)"><g><path d="M 16.402344 -11.773438 L 12.742188 -11.773438 L 12.742188 -5.140625 C 12.742188 -3.484375 11.863281 -2.832031 9.0625 -2.832031 C 5.316406 -2.832031 4.574219 -3.398438 4.574219 -5.140625 L 4.574219 -11.773438 L 0.949219 -11.773438 L 0.949219 -5.140625 C 0.949219 -1.582031 3.398438 0.195312 9.0625 0.195312 C 13.957031 0.195312 16.402344 -1.582031 16.402344 -5.140625 Z M 16.402344 -11.773438 "/></g></g></g><g fill="#ffffff" fill-opacity="1"><g transform="translate(44.116743, 49.992905)"><g><path d="M 4.804688 -11.773438 L 1.160156 -11.773438 L 1.160156 0 L 4.804688 0 Z M 4.804688 -11.773438 "/></g></g></g><g fill="#ffffff" fill-opacity="1"><g transform="translate(49.871726, 49.992905)"><g><path d="M 13.042969 0.195312 C 14.097656 0.195312 15.046875 -0.457031 15.046875 -2.023438 L 15.046875 -11.773438 L 11.722656 -11.773438 L 11.722656 -4.855469 L 4.503906 -11.332031 C 3.925781 -11.863281 3.484375 -11.96875 3.042969 -11.96875 C 2.007812 -11.96875 1.054688 -11.332031 1.054688 -9.765625 L 1.054688 0 L 4.363281 0 L 4.363281 -6.917969 L 11.582031 -0.441406 C 12.144531 0.0898438 12.582031 0.195312 13.042969 0.195312 Z M 13.042969 0.195312 "/></g></g></g><g fill="#ffffff" fill-opacity="1"><g transform="translate(65.746343, 49.992905)"><g><path d="M 2.359375 -11.773438 L 0 -8.710938 L 5.527344 -8.710938 L 5.527344 0 L 9.167969 0 L 9.167969 -8.710938 L 13.375 -8.710938 L 15.734375 -11.773438 Z M 2.359375 -11.773438 "/></g></g></g><g fill="#ffffff" fill-opacity="1"><g transform="translate(81.268967, 49.992905)"><g><path d="M 19.78125 0 L 12.425781 -10.648438 C 11.914062 -11.386719 11.191406 -11.96875 10.101562 -11.96875 C 8.957031 -11.96875 8.238281 -11.332031 7.742188 -10.648438 L 0.195312 0 L 4.503906 0 L 10.03125 -7.8125 L 12.144531 -4.699219 C 12.53125 -4.136719 13.023438 -3.414062 13.339844 -2.992188 C 12.777344 -3.027344 11.949219 -3.027344 11.246094 -3.027344 L 8.289062 -3.027344 L 6.089844 0 Z M 19.78125 0 "/></g></g></g><g fill="#ffffff" fill-opacity="1"><g transform="translate(101.033047, 49.992905)"><g><path d="M 4.75 -3.027344 L 4.75 -11.773438 L 1.109375 -11.773438 L 1.109375 0 L 11.511719 0 L 13.867188 -3.027344 Z M 4.75 -3.027344 "/></g></g></g><g fill="#ffffff" fill-opacity="1"><g transform="translate(114.79573, 49.992905)"><g><path d="M 2.042969 -7.09375 L 0.265625 -4.820312 L 6.140625 -4.820312 L 7.917969 -7.09375 Z M 2.042969 -7.09375 "/></g></g></g><g fill="#ffffff" fill-opacity="1"><g transform="translate(122.750642, 49.992905)"><g><path d="M 2.359375 -11.773438 L 0 -8.710938 L 5.527344 -8.710938 L 5.527344 0 L 9.167969 0 L 9.167969 -8.710938 L 13.375 -8.710938 L 15.734375 -11.773438 Z M 2.359375 -11.773438 "/></g></g></g><g fill="#ffffff" fill-opacity="1"><g transform="translate(138.273271, 49.992905)"><g><path d="M 9.34375 -11.96875 C 3.609375 -11.96875 0.738281 -10.101562 0.738281 -5.894531 C 0.738281 -1.691406 3.609375 0.195312 9.34375 0.195312 C 15.066406 0.195312 17.953125 -1.691406 17.953125 -5.894531 C 17.953125 -10.101562 15.066406 -11.96875 9.34375 -11.96875 Z M 9.34375 -2.867188 C 5.683594 -2.867188 4.363281 -3.363281 4.363281 -5.894531 C 4.363281 -8.429688 5.683594 -8.90625 9.34375 -8.90625 C 13.003906 -8.90625 14.324219 -8.429688 14.324219 -5.894531 C 14.324219 -3.363281 13.003906 -2.867188 9.34375 -2.867188 Z M 9.34375 -2.867188 "/></g></g></g><g fill="#ffffff" fill-opacity="1"><g transform="translate(156.752603, 49.992905)"><g><path d="M 15.644531 -2.289062 C 14.835938 -3.113281 14.394531 -3.539062 13.992188 -3.835938 C 15.925781 -4.222656 17.070312 -5.738281 17.070312 -7.566406 C 17.070312 -10.929688 13.691406 -11.773438 11.015625 -11.773438 L 3.449219 -11.773438 L 1.074219 -8.710938 L 11.316406 -8.710938 C 12.566406 -8.710938 13.324219 -8.253906 13.324219 -7.339844 C 13.324219 -6.53125 12.441406 -6.019531 11.316406 -6.019531 L 1.074219 -6.019531 L 1.074219 0 L 4.714844 0 L 4.714844 -3.113281 L 10.3125 -3.113281 L 12.933594 0 L 17.808594 0 Z M 15.644531 -2.289062 "/></g></g></g><g fill="#ffffff" fill-opacity="1"><g transform="translate(174.545561, 49.992905)"><g><path d="M 15.644531 -2.289062 C 14.835938 -3.113281 14.394531 -3.539062 13.992188 -3.835938 C 15.925781 -4.222656 17.070312 -5.738281 17.070312 -7.566406 C 17.070312 -10.929688 13.691406 -11.773438 11.015625 -11.773438 L 3.449219 -11.773438 L 1.074219 -8.710938 L 11.316406 -8.710938 C 12.566406 -8.710938 13.324219 -8.253906 13.324219 -7.339844 C 13.324219 -6.53125 12.441406 -6.019531 11.316406 -6.019531 L 1.074219 -6.019531 L 1.074219 0 L 4.714844 0 L 4.714844 -3.113281 L 10.3125 -3.113281 L 12.933594 0 L 17.808594 0 Z M 15.644531 -2.289062 "/></g></g></g><g fill="#ffffff" fill-opacity="1"><g transform="translate(192.338519, 49.992905)"><g><path d="M 4.769531 -3.027344 L 4.769531 -4.628906 L 12.003906 -4.628906 L 14.097656 -7.304688 L 4.769531 -7.304688 L 4.769531 -8.710938 L 12.390625 -8.710938 L 14.75 -11.773438 L 1.109375 -11.773438 L 1.109375 0 L 12.441406 0 L 14.785156 -3.027344 Z M 4.769531 -3.027344 "/></g></g></g><g fill="#ffffff" fill-opacity="1"><g transform="translate(207.05157, 49.992905)"><g><path d="M 5.613281 -7.074219 C 4.769531 -7.074219 4.363281 -7.304688 4.363281 -7.902344 C 4.363281 -8.5 4.769531 -8.710938 5.613281 -8.710938 L 13.78125 -8.710938 L 16.121094 -11.773438 L 5.894531 -11.773438 C 2.324219 -11.773438 0.84375 -10.332031 0.84375 -8.113281 C 0.84375 -6.089844 2.234375 -4.734375 5.261719 -4.734375 L 11.667969 -4.734375 C 12.53125 -4.734375 12.917969 -4.488281 12.917969 -3.890625 C 12.917969 -3.273438 12.53125 -3.027344 11.667969 -3.027344 L 2.761719 -3.027344 L 0.421875 0 L 11.386719 0 C 14.976562 0 16.4375 -1.441406 16.4375 -3.855469 C 16.4375 -6 14.890625 -7.074219 12.019531 -7.074219 Z M 5.613281 -7.074219 "/></g></g></g></svg>